<svg xmlns="http://www.w3.org/2000/svg" width="200px" height="264px" viewBox="0 0 200 263" version="1.1">
    <g id="surface1">
        <path style="fill:currentColor;" d="M 177.164062 29.832031 C 195.210938 48.84375 200.261719 69.660156 200.179688 94.941406 C 200.179688 96.742188 200.179688 98.542969 200.179688 100.398438 C 200.179688 106.339844 200.167969 112.277344 200.152344 118.214844 C 200.152344 122.339844 200.148438 126.460938 200.148438 130.582031 C 200.140625 141.425781 200.125 152.265625 200.109375 163.109375 C 200.09375 174.175781 200.085938 185.242188 200.078125 196.308594 C 200.058594 218.015625 200.03125 239.722656 200 261.429688 C 199.480469 261.429688 198.960938 261.429688 198.425781 261.429688 C 198.425781 261.949219 198.425781 262.464844 198.425781 263 C 172.902344 263.054688 147.378906 263.097656 121.855469 263.121094 C 110.007812 263.132812 98.15625 263.152344 86.308594 263.175781 C 74.882812 263.203125 63.457031 263.21875 52.03125 263.222656 C 47.660156 263.226562 43.292969 263.238281 38.921875 263.25 C 32.824219 263.265625 26.726562 263.269531 20.628906 263.265625 C 18.804688 263.277344 16.980469 263.285156 15.097656 263.292969 C 2.632812 263.269531 2.632812 263.269531 0 260.644531 C -0.238281 255.007812 -0.320312 249.4375 -0.304688 243.796875 C -0.3125 241.152344 -0.3125 241.152344 -0.316406 238.453125 C -0.328125 232.59375 -0.320312 226.730469 -0.3125 220.871094 C -0.316406 216.804688 -0.316406 212.738281 -0.320312 208.671875 C -0.324219 200.128906 -0.320312 191.589844 -0.308594 183.046875 C -0.292969 172.113281 -0.300781 161.179688 -0.316406 150.246094 C -0.324219 141.839844 -0.320312 133.433594 -0.316406 125.027344 C -0.316406 120.996094 -0.316406 116.96875 -0.320312 112.9375 C -0.328125 107.289062 -0.320312 101.640625 -0.304688 95.992188 C -0.308594 94.332031 -0.316406 92.675781 -0.320312 90.964844 C -0.214844 66.429688 7.148438 46.917969 24.113281 29.046875 C 67.144531 -13.128906 133.585938 -6.375 177.164062 29.832031 Z M 104.722656 10.207031 C 104.703125 20.925781 104.691406 31.644531 104.679688 42.363281 C 104.675781 46.011719 104.671875 49.664062 104.664062 53.3125 C 104.65625 58.546875 104.652344 63.777344 104.648438 69.011719 C 104.644531 70.65625 104.640625 72.300781 104.636719 73.992188 C 104.636719 77.851562 104.675781 81.714844 104.722656 85.574219 C 105.746094 86.773438 105.746094 86.773438 109.070312 86.449219 C 110.648438 86.441406 112.230469 86.4375 113.855469 86.433594 C 116.15625 86.433594 116.15625 86.433594 118.5 86.429688 C 120.46875 86.421875 122.433594 86.414062 124.457031 86.40625 C 130.679688 86.390625 136.898438 86.375 143.308594 86.359375 C 143.308594 64.078125 143.308594 41.796875 143.308594 18.839844 C 130.214844 13.945312 118.601562 11.058594 104.722656 10.207031 Z M 56.691406 18.839844 C 56.691406 41.121094 56.691406 63.402344 56.691406 86.359375 C 68.90625 86.359375 81.117188 86.359375 93.699219 86.359375 C 93.699219 61.226562 93.699219 36.097656 93.699219 10.207031 C 81.085938 10.207031 68.179688 13.933594 56.691406 18.839844 Z M 154.332031 25.121094 C 154.332031 45.332031 154.332031 65.539062 154.332031 86.359375 C 166.285156 86.359375 178.234375 86.359375 190.550781 86.359375 C 188.164062 62.570312 182.238281 47.777344 164.566406 31.402344 C 159.898438 27.652344 159.898438 27.652344 154.332031 25.121094 Z M 29.332031 37.046875 C 16.128906 51.394531 10.234375 66.261719 10.234375 85.574219 C 21.929688 85.574219 33.621094 85.574219 45.667969 85.574219 C 45.667969 65.625 45.667969 45.675781 45.667969 25.121094 C 40.554688 25.121094 32.773438 33.902344 29.332031 37.046875 Z M 8.660156 94.992188 C 8.660156 100.695312 8.660156 106.394531 8.660156 112.265625 C 69.203125 112.265625 129.746094 112.265625 192.125 112.265625 C 192.3125 102.566406 192.3125 102.566406 191.339844 94.992188 C 131.054688 94.992188 70.773438 94.992188 8.660156 94.992188 Z M 10.234375 121.6875 C 10.234375 143.96875 10.234375 166.246094 10.234375 189.203125 C 21.929688 189.203125 33.621094 189.203125 45.667969 189.203125 C 45.667969 184.539062 45.667969 179.875 45.667969 175.070312 C 43.980469 174.894531 42.292969 174.714844 40.550781 174.53125 C 34.644531 173.5 34.644531 173.5 28.347656 169.574219 C 27.828125 169.574219 27.308594 169.574219 26.773438 169.574219 C 23.707031 163.460938 22.046875 159.265625 22.046875 152.304688 C 25.8125 141.792969 25.8125 141.792969 29.921875 139.742188 C 35.269531 137.363281 39.816406 136.152344 45.667969 135.816406 C 45.667969 131.15625 45.667969 126.492188 45.667969 121.6875 C 33.976562 121.6875 22.285156 121.6875 10.234375 121.6875 Z M 56.691406 121.6875 C 56.628906 125.101562 56.5625 128.519531 56.496094 132.039062 C 56.460938 133.960938 56.421875 135.882812 56.386719 137.863281 C 56.21875 143.066406 56.21875 143.066406 59.84375 146.808594 C 62.457031 154.628906 61.597656 158.964844 58.269531 166.4375 C 57.746094 166.953125 57.226562 167.472656 56.691406 168.007812 C 56.578125 171.570312 56.5625 175.136719 56.59375 178.703125 C 56.628906 182.167969 56.660156 185.632812 56.691406 189.203125 C 68.90625 189.203125 81.117188 189.203125 93.699219 189.203125 C 93.699219 166.921875 93.699219 144.640625 93.699219 121.6875 C 81.488281 121.6875 69.277344 121.6875 56.691406 121.6875 Z M 104.722656 121.6875 C 104.722656 143.96875 104.722656 166.246094 104.722656 189.203125 C 117.457031 189.203125 130.1875 189.203125 143.308594 189.203125 C 143.308594 166.921875 143.308594 144.640625 143.308594 121.6875 C 130.574219 121.6875 117.84375 121.6875 104.722656 121.6875 Z M 154.332031 121.6875 C 154.332031 143.96875 154.332031 166.246094 154.332031 189.203125 C 166.285156 189.203125 178.234375 189.203125 190.550781 189.203125 C 190.550781 166.921875 190.550781 144.640625 190.550781 121.6875 C 178.597656 121.6875 166.644531 121.6875 154.332031 121.6875 Z M 33.859375 146.023438 C 29.128906 151.539062 29.128906 151.539062 29.132812 158.585938 C 32.824219 164.15625 32.824219 164.15625 38.582031 167.222656 C 44.824219 167.6875 44.824219 167.6875 49.605469 164.867188 C 54.382812 159.734375 54.382812 159.734375 54.332031 153.089844 C 52.1875 148.027344 52.1875 148.027344 47.242188 144.453125 C 41.9375 142.691406 38.664062 143.628906 33.859375 146.023438 Z M 8.660156 199.410156 C 8.660156 204.847656 8.660156 210.289062 8.660156 215.894531 C 68.945312 215.894531 129.226562 215.894531 191.339844 215.894531 C 191.339844 210.453125 191.339844 205.015625 191.339844 199.410156 C 131.054688 199.410156 70.773438 199.410156 8.660156 199.410156 Z M 10.234375 225.316406 C 10.234375 235.421875 10.234375 245.523438 10.234375 255.933594 C 21.929688 255.933594 33.621094 255.933594 45.667969 255.933594 C 45.667969 245.832031 45.667969 235.726562 45.667969 225.316406 C 33.976562 225.316406 22.285156 225.316406 10.234375 225.316406 Z M 56.691406 225.316406 C 56.691406 235.421875 56.691406 245.523438 56.691406 255.933594 C 68.90625 255.933594 81.117188 255.933594 93.699219 255.933594 C 93.699219 245.832031 93.699219 235.726562 93.699219 225.316406 C 81.488281 225.316406 69.277344 225.316406 56.691406 225.316406 Z M 104.722656 225.316406 C 104.722656 235.421875 104.722656 245.523438 104.722656 255.933594 C 117.457031 255.933594 130.1875 255.933594 143.308594 255.933594 C 143.308594 245.832031 143.308594 235.726562 143.308594 225.316406 C 130.574219 225.316406 117.84375 225.316406 104.722656 225.316406 Z M 154.332031 225.316406 C 154.332031 235.421875 154.332031 245.523438 154.332031 255.933594 C 166.285156 255.933594 178.234375 255.933594 190.550781 255.933594 C 190.550781 245.832031 190.550781 235.726562 190.550781 225.316406 C 178.597656 225.316406 166.644531 225.316406 154.332031 225.316406 Z M 154.332031 225.316406 "/>
    </g>
</svg>