<svg xmlns="http://www.w3.org/2000/svg" version="1.0" preserveAspectRatio="xMidYMid meet" viewBox="141.9 148.2 360.5 347">
    <g transform="translate(0.000000,640.000000) scale(0.100000,-0.100000)" fill="#000000" stroke="none">
        <path d="M3225 4914 c-6 -2 -9 -59 -7 -149 3 -125 1 -146 -12 -151 -9 -3 -16 -14 -16 -23 0 -10 -41 -50 -92 -92 -50 -41 -111 -91 -134 -112 l-43 -38 -1 -246 c0 -135 -3 -250 -6 -254 -3 -5 -18 -9 -34 -9 -16 0 -37 -9 -47 -19 -10 -11 -30 -22 -44 -26 -26 -6 -26 -6 -32 62 -4 37 -7 89 -7 116 0 26 -2 47 -4 47 -3 0 -50 9 -106 20 -56 11 -105 20 -110 20 -5 0 -39 -26 -76 -57 l-67 -56 7 -126 c4 -69 10 -136 13 -148 4 -17 -4 -26 -40 -47 -25 -15 -59 -26 -80 -26 -41 0 -274 -46 -296 -58 -9 -5 -14 -29 -15 -77 -1 -53 -4 -70 -16 -72 -35 -6 -39 9 -25 87 45 249 250 548 505 737 103 76 128 91 172 104 26 7 28 6 22 -13 -6 -20 -6 -20 25 -2 17 10 31 24 31 32 0 16 -36 89 -48 96 -9 5 -211 -118 -277 -168 -123 -94 -262 -243 -347 -371 -85 -129 -164 -321 -204 -497 l-17 -76 -91 -22 c-140 -33 -230 -61 -238 -74 -4 -6 -8 -57 -8 -113 0 -72 -6 -125 -21 -178 l-20 -74 25 -38 c25 -36 26 -44 26 -183 0 -123 -4 -161 -25 -240 -13 -52 -22 -96 -21 -98 2 -2 71 15 152 36 306 82 331 86 360 67 23 -15 24 -20 24 -149 0 -177 -2 -175 147 -152 60 9 115 16 124 16 9 0 52 -33 95 -74 198 -186 483 -383 799 -550 l91 -48 89 46 c333 170 652 390 874 603 28 27 18 27 137 8 103 -17 119 -15 152 16 20 18 22 29 22 139 0 107 2 122 20 140 11 11 23 20 28 20 12 0 319 -79 395 -101 38 -11 71 -18 74 -15 3 3 -4 44 -16 90 -17 68 -21 115 -21 236 0 146 1 152 27 191 l27 40 -22 68 c-18 54 -22 92 -22 187 l0 120 -147 38 c-82 21 -155 40 -164 42 -11 3 -18 20 -23 51 -17 125 -136 410 -229 548 -131 194 -342 389 -516 475 -33 17 -61 35 -61 40 0 8 -176 70 -200 70 -6 0 -10 -12 -10 -26 0 -25 33 -63 56 -64 6 0 29 -16 52 -36 23 -19 46 -33 51 -29 21 12 227 -118 323 -204 132 -120 272 -315 346 -487 35 -79 82 -235 75 -246 -2 -5 -15 -8 -29 -8 -23 0 -24 2 -24 70 0 84 15 75 -187 116 -132 26 -143 30 -143 51 0 21 -5 24 -64 38 -26 5 -28 9 -22 38 4 17 13 35 20 39 8 4 17 29 21 55 4 27 11 54 17 60 13 17 -1 37 -89 132 -66 71 -70 74 -93 61 -46 -24 -190 -122 -190 -129 0 -4 7 -16 15 -27 20 -26 20 -114 0 -114 -8 0 -17 11 -21 25 -6 24 -48 55 -74 55 -5 0 -10 -9 -10 -20 0 -21 0 -21 -80 0 l-25 6 -3 250 -3 249 -117 98 c-64 54 -125 103 -134 110 -11 7 -20 31 -24 59 l-6 46 67 7 c43 5 75 4 91 -4 14 -6 66 -11 116 -11 l91 0 -7 31 c-3 17 -6 48 -6 68 l0 36 -63 -3 c-51 -3 -76 2 -127 23 -44 19 -76 25 -109 23 -46 -2 -46 -2 -49 32 -4 41 -20 56 -47 44z m178 -567 l57 -28 0 -400 0 -400 -27 3 c-16 2 -31 10 -35 18 -4 8 -7 106 -7 216 -1 221 1 214 -62 214 -26 0 -29 3 -29 31 l0 32 45 -6 45 -7 0 131 0 130 -37 15 c-60 26 -136 29 -208 9 l-65 -17 -2 -382 -3 -381 -30 0 -30 0 -2 390 c-2 215 1 395 5 401 4 6 36 23 72 38 57 23 76 26 160 23 80 -2 104 -7 153 -30z m-115 -1284 l-3 -288 -60 0 -60 0 -3 133 c-1 72 -6 132 -10 132 -4 0 -34 -54 -65 -120 -34 -71 -63 -120 -71 -120 -19 0 -43 35 -97 142 -24 48 -44 86 -45 85 -1 -1 -4 -58 -8 -127 -3 -69 -5 -128 -6 -132 0 -5 -31 -8 -70 -8 l-70 0 0 290 0 290 74 0 74 0 32 -67 c18 -38 50 -105 73 -150 l41 -81 12 31 c15 40 97 225 113 255 10 19 20 22 82 22 l69 0 -2 -287z m412 265 c44 -13 88 -53 106 -95 8 -18 14 -66 14 -108 0 -67 -3 -81 -27 -111 -39 -52 -70 -64 -168 -64 l-85 0 0 -90 0 -90 -70 0 -70 0 0 291 0 291 133 -7 c72 -3 148 -11 167 -17z m318 -24 c9 -2 12 -56 12 -223 0 -208 1 -221 19 -231 28 -14 118 -13 128 3 4 6 8 50 8 97 1 47 2 141 3 209 l2 124 61 -7 c33 -4 66 -9 72 -12 9 -3 11 -63 9 -231 -3 -252 -8 -272 -68 -318 -40 -31 -100 -35 -204 -14 -54 10 -70 19 -114 61 l-51 49 -3 254 -3 254 58 -6 c32 -2 64 -6 71 -9z m-1494 -167 c32 -94 76 -219 98 -276 29 -80 35 -106 26 -113 -10 -6 -77 -10 -125 -8 -5 1 -17 23 -27 51 l-19 51 -86 -7 c-47 -4 -89 -9 -93 -12 -4 -2 -13 -30 -20 -63 -13 -65 -12 -64 -111 -76 l-56 -7 9 29 c32 97 160 543 160 557 0 9 5 19 11 23 12 7 98 21 144 23 l30 1 59 -173z m-535 80 c33 -16 71 -91 71 -138 l0 -37 -63 -11 c-35 -6 -66 -11 -69 -11 -3 0 -8 14 -11 30 -6 26 -11 30 -39 29 -52 0 -101 -22 -115 -49 -15 -30 -6 -267 10 -288 8 -10 26 -12 66 -7 65 7 91 30 91 80 0 31 2 32 48 38 26 4 58 10 71 13 24 7 24 7 18 -55 -15 -139 -77 -190 -279 -231 -63 -12 -94 -3 -134 42 -36 40 -44 84 -44 250 0 151 1 162 26 214 37 79 74 100 239 137 40 9 90 6 114 -6z m2644 -8 c95 -25 124 -38 152 -71 36 -41 45 -67 45 -121 l0 -54 -62 11 c-58 10 -63 13 -66 39 -4 35 -39 57 -94 60 -43 2 -43 2 -43 -33 l0 -35 90 -31 c155 -54 196 -113 182 -264 -8 -97 -63 -147 -146 -136 -94 13 -191 48 -225 82 -34 34 -56 90 -56 143 0 29 2 31 33 25 94 -15 102 -19 107 -49 6 -31 48 -53 107 -54 29 -1 33 2 39 34 8 43 -5 61 -51 69 -18 4 -64 22 -102 41 -88 44 -116 84 -121 170 -7 115 26 166 126 194 1 1 40 -9 85 -20z m-1463 -635 l0 -44 -85 0 c-79 0 -85 -1 -85 -21 0 -19 5 -20 68 -18 l67 3 3 -47 3 -47 -70 0 c-64 0 -71 -2 -71 -20 0 -18 7 -20 85 -20 l85 0 0 -50 0 -50 -97 -1 c-54 0 -117 -2 -140 -5 l-43 -6 0 186 0 185 133 3 c72 2 135 2 140 0 4 -2 7 -23 7 -48z m172 47 c19 -4 45 -31 88 -90 33 -47 62 -86 64 -88 2 -2 4 36 5 84 1 48 3 88 4 88 1 1 26 -1 55 -3 l52 -4 0 -156 c0 -204 0 -204 -59 -200 -45 3 -46 4 -113 97 l-68 93 0 -90 c0 -50 -3 -93 -7 -95 -5 -2 -27 -2 -50 1 l-43 4 0 184 0 184 23 -1 c12 -1 34 -4 49 -8z m-578 -108 c-20 -54 -50 -137 -67 -185 l-30 -88 -39 -2 c-21 -1 -46 -2 -55 -2 -12 -1 -29 28 -61 104 -54 128 -92 233 -88 238 2 2 28 6 57 9 l54 5 35 -101 c18 -56 37 -101 40 -101 3 0 21 50 40 110 l33 110 58 0 59 0 -36 -97z m1119 76 l127 -13 0 -49 0 -49 -50 4 -50 3 0 -117 c0 -64 -2 -122 -5 -130 -4 -9 -20 -12 -55 -10 l-50 4 0 133 0 133 -31 6 c-17 3 -42 6 -55 6 -22 0 -24 4 -23 43 2 54 4 57 37 52 15 -2 84 -10 155 -16z m-1543 -64 c0 -49 5 -46 -115 -63 -34 -5 -50 -12 -50 -22 0 -16 4 -17 83 -6 l52 7 0 -45 0 -44 -52 -7 c-77 -9 -88 -14 -88 -36 0 -15 5 -19 18 -15 9 2 47 7 85 11 l67 7 0 -47 c0 -53 7 -49 -120 -64 -52 -7 -110 -15 -127 -18 l-33 -5 0 179 0 180 73 8 c39 4 97 11 127 15 30 4 61 8 68 9 8 1 12 -14 12 -44z m1910 24 c112 -18 160 -55 160 -124 0 -21 -5 -25 -29 -25 -42 0 -81 17 -81 34 0 19 -67 33 -82 18 -18 -18 1 -31 63 -43 45 -9 70 -20 96 -45 34 -32 35 -36 31 -91 -8 -93 -47 -109 -193 -78 -38 8 -78 23 -88 34 -19 19 -40 98 -28 105 3 1 27 1 54 -2 38 -3 47 -8 47 -23 0 -13 10 -20 35 -25 61 -11 91 21 34 37 -154 43 -169 54 -169 124 0 59 8 79 38 98 32 20 30 20 112 6z m-1485 -521 c33 -17 78 -42 100 -54 94 -55 230 -116 273 -123 26 -4 82 -4 124 -1 65 6 94 15 185 59 59 29 143 73 186 98 74 43 136 60 143 38 4 -11 -122 -95 -246 -165 -41 -23 -88 -50 -105 -60 -84 -48 -194 -100 -211 -100 -20 0 -111 49 -363 195 -40 24 -129 81 -159 104 -24 18 -30 26 -20 32 20 13 29 11 93 -23z"/>
        <path d="M3540 3145 c0 -30 3 -55 8 -56 4 0 30 -2 59 -5 57 -5 63 -1 70 54 7 47 -14 62 -84 62 l-53 0 0 -55z"/>
        <path d="M2767 4474 c-85 -27 -83 -24 -55 -96 l10 -27 70 35 c63 32 128 86 128 106 0 16 -77 7 -153 -18z"/>
    </g>
</svg>